<svg width="45" height="39" viewBox="0 0 45 39" fill="none" xmlns="http://www.w3.org/2000/svg">
  <g transform="translate(2.1635 0.0000) scale(0.057692)">
    <g fill="#000000">
      <path d="M 143.00 63.00 L 135.00 71.00 L 131.00 81.00 L 131.00 94.00 L 135.00 105.00 L 41.00 275.00 L 24.00 315.00 L 11.00 361.00 L 6.00 402.00 L 6.00 427.00 L 9.00 453.00 L 20.00 490.00 L 30.00 509.00 L 39.00 521.00 L 41.00 502.00 L 45.00 487.00 L 54.00 468.00 L 62.00 457.00 L 76.00 443.00 L 93.00 431.00 L 118.00 421.00 L 128.00 419.00 L 133.00 420.00 L 110.00 429.00 L 88.00 444.00 L 70.00 464.00 L 57.00 488.00 L 52.00 505.00 L 51.00 528.00 L 57.00 550.00 L 67.00 568.00 L 55.00 578.00 L 50.00 586.00 L 48.00 592.00 L 48.00 603.00 L 50.00 607.00 L 56.00 613.00 L 60.00 614.00 L 61.00 604.00 L 64.00 599.00 L 64.00 610.00 L 71.00 620.00 L 90.00 626.00 L 113.00 626.00 L 133.00 595.00 L 154.00 574.00 L 172.00 561.00 L 188.00 552.00 L 213.00 542.00 L 239.00 536.00 L 260.00 534.00 L 288.00 535.00 L 312.00 539.00 L 354.00 551.00 L 410.00 570.00 L 454.00 580.00 L 481.00 583.00 L 504.00 583.00 L 537.00 579.00 L 577.00 566.00 L 597.00 555.00 L 615.00 542.00 L 642.00 512.00 L 650.00 499.00 L 659.00 478.00 L 660.00 482.00 L 651.00 509.00 L 640.00 529.00 L 627.00 545.00 L 604.00 565.00 L 586.00 576.00 L 553.00 589.00 L 524.00 595.00 L 471.00 596.00 L 414.00 586.00 L 332.00 559.00 L 299.00 551.00 L 273.00 548.00 L 235.00 551.00 L 199.00 562.00 L 178.00 573.00 L 156.00 589.00 L 140.00 605.00 L 124.00 627.00 L 113.00 648.00 L 107.00 665.00 L 126.00 656.00 L 149.00 649.00 L 176.00 645.00 L 213.00 644.00 L 265.00 649.00 L 336.00 661.00 L 394.00 668.00 L 464.00 669.00 L 485.00 667.00 L 521.00 661.00 L 563.00 648.00 L 604.00 627.00 L 632.00 606.00 L 657.00 580.00 L 679.00 546.00 L 692.00 513.00 L 698.00 482.00 L 698.00 451.00 L 690.00 418.00 L 676.00 391.00 L 657.00 370.00 L 646.00 362.00 L 635.00 357.00 L 649.00 392.00 L 651.00 404.00 L 650.00 432.00 L 646.00 448.00 L 637.00 469.00 L 623.00 490.00 L 608.00 506.00 L 580.00 527.00 L 548.00 542.00 L 510.00 550.00 L 474.00 550.00 L 468.00 541.00 L 470.00 540.00 L 477.00 545.00 L 476.00 535.00 L 463.00 520.00 L 443.00 510.00 L 421.00 505.00 L 432.00 475.00 L 435.00 443.00 L 430.00 417.00 L 419.00 397.00 L 406.00 383.00 L 391.00 372.00 L 370.00 362.00 L 339.00 352.00 L 329.00 346.00 L 359.00 344.00 L 385.00 345.00 L 397.00 351.00 L 409.00 366.00 L 420.00 376.00 L 426.00 377.00 L 428.00 375.00 L 430.00 363.00 L 433.00 374.00 L 437.00 379.00 L 440.00 379.00 L 443.00 375.00 L 445.00 355.00 L 450.00 370.00 L 454.00 358.00 L 453.00 340.00 L 450.00 330.00 L 439.00 311.00 L 427.00 299.00 L 412.00 289.00 L 390.00 279.00 L 363.00 271.00 L 348.00 263.00 L 339.00 253.00 L 337.00 241.00 L 343.00 227.00 L 354.00 216.00 L 382.00 202.00 L 401.00 189.00 L 414.00 176.00 L 420.00 165.00 L 427.00 162.00 L 435.00 155.00 L 441.00 145.00 L 455.00 154.00 L 466.00 165.00 L 477.00 181.00 L 466.00 160.00 L 454.00 148.00 L 442.00 140.00 L 445.00 132.00 L 457.00 136.00 L 477.00 148.00 L 493.00 164.00 L 487.00 154.00 L 475.00 142.00 L 458.00 132.00 L 446.00 129.00 L 443.00 121.00 L 445.00 119.00 L 465.00 121.00 L 487.00 130.00 L 496.00 137.00 L 491.00 131.00 L 475.00 121.00 L 457.00 116.00 L 443.00 116.00 L 440.00 112.00 L 440.00 131.00 L 433.00 147.00 L 426.00 154.00 L 421.00 154.00 L 415.00 140.00 L 413.00 139.00 L 398.00 151.00 L 378.00 163.00 L 359.00 169.00 L 346.00 170.00 L 356.00 173.00 L 369.00 172.00 L 379.00 169.00 L 407.00 154.00 L 414.00 158.00 L 412.00 166.00 L 398.00 182.00 L 382.00 193.00 L 348.00 208.00 L 329.00 222.00 L 308.00 249.00 L 294.00 278.00 L 284.00 312.00 L 282.00 327.00 L 299.00 338.00 L 317.00 357.00 L 329.00 380.00 L 332.00 400.00 L 330.00 410.00 L 324.00 417.00 L 322.00 426.00 L 316.00 432.00 L 310.00 432.00 L 305.00 428.00 L 299.00 432.00 L 291.00 431.00 L 264.00 406.00 L 263.00 407.00 L 272.00 442.00 L 276.00 466.00 L 275.00 488.00 L 271.00 503.00 L 268.00 482.00 L 261.00 459.00 L 251.00 441.00 L 235.00 423.00 L 225.00 416.00 L 207.00 408.00 L 170.00 404.00 L 144.00 397.00 L 129.00 388.00 L 119.00 378.00 L 112.00 367.00 L 108.00 357.00 L 109.00 353.00 L 117.00 366.00 L 126.00 375.00 L 136.00 382.00 L 153.00 390.00 L 172.00 395.00 L 189.00 397.00 L 217.00 397.00 L 243.00 394.00 L 257.00 395.00 L 268.00 400.00 L 289.00 422.00 L 294.00 425.00 L 298.00 425.00 L 301.00 422.00 L 301.00 409.00 L 310.00 426.00 L 313.00 426.00 L 316.00 423.00 L 318.00 418.00 L 318.00 408.00 L 315.00 398.00 L 316.00 397.00 L 318.00 399.00 L 323.00 411.00 L 326.00 396.00 L 322.00 379.00 L 308.00 356.00 L 292.00 341.00 L 276.00 331.00 L 227.00 312.00 L 208.00 302.00 L 188.00 285.00 L 175.00 267.00 L 165.00 244.00 L 159.00 215.00 L 159.00 190.00 L 164.00 163.00 L 168.00 151.00 L 181.00 128.00 L 201.00 109.00 L 210.00 103.00 L 233.00 93.00 L 253.00 88.00 L 284.00 84.00 L 298.00 95.00 L 305.00 98.00 L 313.00 99.00 L 328.00 94.00 L 331.00 96.00 L 320.00 120.00 L 295.00 127.00 L 276.00 137.00 L 289.00 131.00 L 310.00 125.00 L 320.00 124.00 L 323.00 128.00 L 325.00 128.00 L 330.00 122.00 L 354.00 121.00 L 350.00 119.00 L 333.00 117.00 L 349.00 99.00 L 375.00 83.00 L 393.00 78.00 L 414.00 79.00 L 408.00 68.00 L 397.00 54.00 L 380.00 38.00 L 365.00 28.00 L 333.00 14.00 L 292.00 6.00 L 259.00 7.00 L 223.00 16.00 L 207.00 23.00 L 186.00 36.00 L 163.00 58.00 L 151.00 59.00 Z"/>
      <path d="M 385.00 100.00 L 384.00 107.00 L 388.00 114.00 L 397.00 119.00 L 402.00 119.00 L 405.00 113.00 L 409.00 122.00 L 415.00 126.00 L 422.00 124.00 L 429.00 118.00 L 436.00 103.00 L 435.00 96.00 L 430.00 91.00 L 417.00 87.00 L 399.00 90.00 L 391.00 94.00 Z"/>
      <path d="M 352.00 131.00 L 329.00 134.00 L 296.00 147.00 L 278.00 158.00 L 263.00 170.00 L 247.00 188.00 L 265.00 172.00 L 290.00 155.00 L 325.00 139.00 Z"/>
      <path d="M 353.00 141.00 L 336.00 147.00 L 308.00 163.00 L 283.00 187.00 L 270.00 208.00 L 278.00 197.00 L 305.00 171.00 L 328.00 155.00 L 352.00 143.00 Z"/>
      <path d="M 354.00 153.00 L 333.00 166.00 L 314.00 185.00 L 299.00 207.00 L 294.00 219.00 L 304.00 203.00 L 319.00 185.00 Z"/>
    </g>
    <g fill="#FFFFFF">
      <path d="M 333.00 79.00 L 332.00 73.00 L 328.00 66.00 L 320.00 59.00 L 311.00 56.00 L 304.00 56.00 L 290.00 60.00 L 283.00 64.00 L 272.00 75.00 L 281.00 75.00 L 297.00 66.00 L 310.00 64.00 L 322.00 69.00 Z"/>
      <path d="M 154.00 71.00 L 150.00 73.00 L 143.00 82.00 L 143.00 94.00 L 150.00 106.00 L 158.00 111.00 L 167.00 113.00 L 163.00 111.00 L 153.00 100.00 L 150.00 92.00 L 150.00 85.00 L 155.00 79.00 L 165.00 78.00 L 181.00 84.00 L 178.00 79.00 L 169.00 72.00 L 162.00 70.00 Z"/>
      <path d="M 309.00 73.00 L 307.00 75.00 L 307.00 80.00 L 309.00 82.00 L 315.00 81.00 L 315.00 74.00 Z"/>
    </g>
  </g>
</svg>