<svg width="45" height="39" viewBox="0 0 45 39" fill="none" xmlns="http://www.w3.org/2000/svg">
  <g transform="translate(7.2221 0.0000) scale(0.043527)">
    <g fill="#000000">
      <path d="M 480.00 43.00 L 461.00 39.00 L 434.00 42.00 L 427.00 34.00 L 433.00 50.00 L 433.00 67.00 L 430.00 75.00 L 426.00 79.00 L 410.00 59.00 L 403.00 75.00 L 391.00 92.00 L 371.00 111.00 L 350.00 122.00 L 353.00 123.00 L 362.00 121.00 L 375.00 115.00 L 392.00 102.00 L 410.00 81.00 L 415.00 81.00 L 418.00 83.00 L 420.00 87.00 L 420.00 96.00 L 416.00 109.00 L 406.00 126.00 L 384.00 154.00 L 374.00 170.00 L 366.00 187.00 L 359.00 214.00 L 359.00 250.00 L 370.00 312.00 L 370.00 350.00 L 366.00 376.00 L 360.00 399.00 L 351.00 424.00 L 338.00 452.00 L 356.00 472.00 L 366.00 490.00 L 372.00 512.00 L 371.00 529.00 L 367.00 538.00 L 360.00 543.00 L 359.00 549.00 L 354.00 557.00 L 344.00 563.00 L 337.00 563.00 L 330.00 558.00 L 318.00 560.00 L 312.00 557.00 L 304.00 550.00 L 295.00 536.00 L 278.00 560.00 L 249.00 590.00 L 248.00 588.00 L 256.00 574.00 L 266.00 550.00 L 274.00 522.00 L 257.00 517.00 L 212.00 511.00 L 182.00 500.00 L 169.00 490.00 L 159.00 477.00 L 151.00 458.00 L 151.00 450.00 L 162.00 472.00 L 179.00 488.00 L 196.00 496.00 L 214.00 501.00 L 280.00 509.00 L 295.00 519.00 L 308.00 542.00 L 319.00 552.00 L 324.00 552.00 L 328.00 548.00 L 329.00 530.00 L 334.00 539.00 L 335.00 553.00 L 340.00 556.00 L 345.00 555.00 L 352.00 546.00 L 353.00 530.00 L 350.00 519.00 L 344.00 507.00 L 345.00 506.00 L 354.00 519.00 L 359.00 536.00 L 364.00 527.00 L 364.00 509.00 L 354.00 484.00 L 334.00 460.00 L 306.00 441.00 L 263.00 421.00 L 248.00 411.00 L 251.00 410.00 L 291.00 425.00 L 292.00 407.00 L 289.00 385.00 L 283.00 364.00 L 271.00 340.00 L 253.00 316.00 L 215.00 273.00 L 197.00 241.00 L 188.00 208.00 L 187.00 188.00 L 189.00 170.00 L 196.00 146.00 L 209.00 123.00 L 230.00 101.00 L 249.00 87.00 L 261.00 80.00 L 268.00 80.00 L 276.00 83.00 L 290.00 82.00 L 305.00 70.00 L 306.00 71.00 L 304.00 87.00 L 285.00 99.00 L 265.00 118.00 L 290.00 99.00 L 335.00 75.00 L 332.00 75.00 L 315.00 82.00 L 314.00 81.00 L 319.00 63.00 L 328.00 46.00 L 343.00 28.00 L 357.00 18.00 L 334.00 11.00 L 314.00 8.00 L 276.00 9.00 L 243.00 18.00 L 217.00 31.00 L 195.00 47.00 L 171.00 73.00 L 157.00 98.00 L 143.00 103.00 L 134.00 112.00 L 130.00 122.00 L 129.00 134.00 L 134.00 148.00 L 143.00 158.00 L 141.00 174.00 L 142.00 277.00 L 139.00 302.00 L 129.00 335.00 L 119.00 360.00 L 102.00 394.00 L 83.00 426.00 L 63.00 468.00 L 52.00 497.00 L 41.00 537.00 L 34.00 583.00 L 34.00 624.00 L 40.00 659.00 L 53.00 698.00 L 52.00 699.00 L 39.00 675.00 L 30.00 649.00 L 23.00 664.00 L 20.00 680.00 L 21.00 710.00 L 30.00 737.00 L 44.00 759.00 L 67.00 784.00 L 37.00 789.00 L 21.00 797.00 L 12.00 806.00 L 7.00 817.00 L 7.00 828.00 L 11.00 835.00 L 14.00 836.00 L 20.00 827.00 L 29.00 820.00 L 30.00 821.00 L 25.00 829.00 L 25.00 836.00 L 31.00 841.00 L 49.00 843.00 L 98.00 841.00 L 136.00 834.00 L 196.00 814.00 L 221.00 811.00 L 201.00 786.00 L 190.00 763.00 L 185.00 741.00 L 185.00 713.00 L 192.00 686.00 L 201.00 666.00 L 216.00 644.00 L 239.00 621.00 L 240.00 623.00 L 219.00 651.00 L 206.00 680.00 L 200.00 706.00 L 199.00 731.00 L 204.00 757.00 L 214.00 780.00 L 227.00 799.00 L 248.00 819.00 L 209.00 822.00 L 187.00 827.00 L 169.00 834.00 L 154.00 846.00 L 147.00 858.00 L 145.00 870.00 L 148.00 879.00 L 152.00 883.00 L 169.00 866.00 L 171.00 867.00 L 166.00 876.00 L 166.00 884.00 L 171.00 888.00 L 204.00 889.00 L 221.00 887.00 L 251.00 881.00 L 274.00 874.00 L 290.00 867.00 L 306.00 857.00 L 322.00 842.00 L 342.00 818.00 L 355.00 807.00 L 372.00 797.00 L 408.00 786.00 L 459.00 780.00 L 484.00 775.00 L 526.00 761.00 L 557.00 745.00 L 577.00 731.00 L 599.00 710.00 L 619.00 682.00 L 630.00 659.00 L 638.00 633.00 L 641.00 614.00 L 642.00 585.00 L 645.00 603.00 L 645.00 628.00 L 642.00 648.00 L 635.00 672.00 L 625.00 694.00 L 613.00 713.00 L 583.00 745.00 L 547.00 769.00 L 516.00 783.00 L 483.00 793.00 L 412.00 804.00 L 379.00 813.00 L 354.00 828.00 L 325.00 857.00 L 314.00 865.00 L 323.00 868.00 L 360.00 873.00 L 416.00 874.00 L 468.00 868.00 L 523.00 854.00 L 569.00 834.00 L 606.00 810.00 L 639.00 779.00 L 652.00 763.00 L 667.00 740.00 L 684.00 703.00 L 694.00 659.00 L 694.00 612.00 L 686.00 575.00 L 670.00 539.00 L 652.00 514.00 L 639.00 501.00 L 620.00 487.00 L 602.00 478.00 L 585.00 473.00 L 580.00 473.00 L 599.00 493.00 L 617.00 522.00 L 624.00 540.00 L 630.00 571.00 L 630.00 592.00 L 625.00 620.00 L 618.00 640.00 L 606.00 663.00 L 593.00 680.00 L 571.00 701.00 L 550.00 715.00 L 528.00 725.00 L 508.00 731.00 L 482.00 735.00 L 449.00 735.00 L 428.00 732.00 L 421.00 729.00 L 431.00 707.00 L 437.00 682.00 L 438.00 663.00 L 435.00 644.00 L 431.00 632.00 L 421.00 613.00 L 389.00 570.00 L 383.00 554.00 L 380.00 537.00 L 380.00 516.00 L 383.00 495.00 L 396.00 444.00 L 398.00 440.00 L 412.00 433.00 L 430.00 419.00 L 477.00 367.00 L 485.00 364.00 L 494.00 364.00 L 503.00 368.00 L 507.00 373.00 L 513.00 372.00 L 517.00 366.00 L 517.00 358.00 L 513.00 350.00 L 504.00 342.00 L 505.00 341.00 L 519.00 351.00 L 523.00 359.00 L 523.00 366.00 L 528.00 365.00 L 532.00 361.00 L 534.00 356.00 L 534.00 347.00 L 530.00 337.00 L 520.00 326.00 L 511.00 320.00 L 504.00 318.00 L 504.00 316.00 L 511.00 317.00 L 522.00 323.00 L 535.00 337.00 L 536.00 330.00 L 532.00 319.00 L 522.00 307.00 L 512.00 301.00 L 498.00 297.00 L 472.00 298.00 L 460.00 302.00 L 436.00 314.00 L 425.00 317.00 L 417.00 293.00 L 390.00 240.00 L 385.00 222.00 L 384.00 194.00 L 390.00 170.00 L 400.00 150.00 L 415.00 129.00 L 423.00 114.00 L 427.00 103.00 L 428.00 89.00 L 433.00 84.00 L 438.00 72.00 L 462.00 83.00 L 482.00 100.00 L 478.00 94.00 L 462.00 79.00 L 450.00 72.00 L 439.00 69.00 L 438.00 60.00 L 440.00 58.00 L 467.00 62.00 L 484.00 69.00 L 497.00 78.00 L 489.00 70.00 L 469.00 59.00 L 452.00 55.00 L 439.00 55.00 L 436.00 47.00 L 442.00 44.00 L 465.00 42.00 L 482.00 45.00 L 491.00 49.00 Z"/>
      <path d="M 419.00 15.00 L 410.00 7.00 L 399.00 6.00 L 387.00 9.00 L 374.00 16.00 L 367.00 23.00 L 364.00 29.00 L 364.00 34.00 L 371.00 41.00 L 380.00 44.00 L 389.00 43.00 L 392.00 36.00 L 400.00 44.00 L 409.00 45.00 L 414.00 41.00 L 420.00 26.00 Z"/>
      <path d="M 336.00 86.00 L 311.00 100.00 L 283.00 125.00 L 265.00 149.00 L 253.00 171.00 L 280.00 134.00 L 305.00 110.00 Z"/>
      <path d="M 342.00 95.00 L 321.00 111.00 L 302.00 133.00 L 286.00 160.00 L 276.00 188.00 L 290.00 159.00 L 304.00 137.00 Z"/>
      <path d="M 348.00 105.00 L 331.00 123.00 L 318.00 146.00 L 311.00 166.00 L 308.00 187.00 L 312.00 170.00 L 319.00 152.00 L 333.00 126.00 Z"/>
    </g>
    <g fill="#FFFFFF">
      <path d="M 306.00 55.00 L 303.00 50.00 L 292.00 41.00 L 281.00 39.00 L 270.00 42.00 L 256.00 54.00 L 244.00 79.00 L 250.00 76.00 L 257.00 69.00 L 261.00 62.00 L 272.00 51.00 L 276.00 49.00 L 289.00 48.00 Z"/>
      <path d="M 150.00 113.00 L 143.00 121.00 L 143.00 139.00 L 148.00 147.00 L 153.00 151.00 L 160.00 154.00 L 172.00 154.00 L 161.00 149.00 L 153.00 141.00 L 149.00 131.00 L 150.00 125.00 L 155.00 119.00 L 160.00 117.00 L 169.00 117.00 L 181.00 120.00 L 177.00 115.00 L 168.00 110.00 L 162.00 109.00 Z"/>
      <path d="M 288.00 57.00 L 285.00 56.00 L 280.00 59.00 L 280.00 64.00 L 282.00 66.00 L 287.00 66.00 L 290.00 63.00 Z"/>
    </g>
  </g>
</svg>