<svg width="45" height="39" viewBox="0 0 45 39" fill="none" xmlns="http://www.w3.org/2000/svg">
  <g transform="translate(10.9376 0.0000) scale(0.037178)">
    <g fill="#000000">
      <path d="M 233.00 6.00 L 217.00 6.00 L 190.00 10.00 L 174.00 15.00 L 152.00 25.00 L 126.00 43.00 L 108.00 61.00 L 93.00 84.00 L 83.00 85.00 L 75.00 89.00 L 67.00 98.00 L 64.00 106.00 L 65.00 123.00 L 71.00 134.00 L 79.00 141.00 L 78.00 186.00 L 84.00 238.00 L 85.00 271.00 L 80.00 315.00 L 65.00 385.00 L 63.00 403.00 L 63.00 432.00 L 66.00 451.00 L 72.00 471.00 L 85.00 496.00 L 88.00 524.00 L 88.00 553.00 L 80.00 609.00 L 52.00 702.00 L 44.00 738.00 L 40.00 767.00 L 39.00 798.00 L 41.00 819.00 L 47.00 847.00 L 57.00 874.00 L 56.00 875.00 L 44.00 853.00 L 33.00 818.00 L 26.00 836.00 L 23.00 853.00 L 23.00 878.00 L 28.00 900.00 L 40.00 926.00 L 59.00 951.00 L 36.00 956.00 L 18.00 966.00 L 8.00 979.00 L 6.00 992.00 L 12.00 1001.00 L 17.00 994.00 L 28.00 985.00 L 29.00 987.00 L 24.00 994.00 L 24.00 1002.00 L 27.00 1005.00 L 42.00 1007.00 L 67.00 1006.00 L 111.00 998.00 L 123.00 994.00 L 154.00 977.00 L 169.00 973.00 L 193.00 970.00 L 174.00 944.00 L 161.00 911.00 L 157.00 888.00 L 158.00 861.00 L 163.00 839.00 L 175.00 809.00 L 192.00 782.00 L 220.00 752.00 L 221.00 754.00 L 202.00 780.00 L 187.00 809.00 L 178.00 835.00 L 172.00 868.00 L 173.00 898.00 L 180.00 926.00 L 191.00 949.00 L 214.00 977.00 L 165.00 984.00 L 146.00 992.00 L 134.00 1003.00 L 127.00 1017.00 L 128.00 1031.00 L 133.00 1036.00 L 142.00 1025.00 L 152.00 1018.00 L 153.00 1019.00 L 149.00 1023.00 L 146.00 1030.00 L 146.00 1037.00 L 149.00 1040.00 L 160.00 1042.00 L 187.00 1041.00 L 212.00 1037.00 L 243.00 1028.00 L 264.00 1018.00 L 284.00 1001.00 L 304.00 970.00 L 314.00 958.00 L 328.00 946.00 L 356.00 931.00 L 423.00 907.00 L 454.00 890.00 L 482.00 869.00 L 503.00 848.00 L 518.00 829.00 L 530.00 810.00 L 544.00 780.00 L 551.00 759.00 L 558.00 724.00 L 558.00 661.00 L 564.00 684.00 L 567.00 714.00 L 566.00 739.00 L 561.00 769.00 L 546.00 813.00 L 535.00 834.00 L 517.00 860.00 L 487.00 891.00 L 448.00 918.00 L 409.00 936.00 L 356.00 953.00 L 332.00 966.00 L 316.00 980.00 L 297.00 1005.00 L 284.00 1017.00 L 308.00 1020.00 L 335.00 1020.00 L 387.00 1013.00 L 440.00 997.00 L 485.00 974.00 L 521.00 947.00 L 541.00 927.00 L 559.00 905.00 L 576.00 879.00 L 587.00 858.00 L 601.00 824.00 L 611.00 785.00 L 615.00 749.00 L 614.00 719.00 L 608.00 684.00 L 596.00 649.00 L 581.00 621.00 L 565.00 600.00 L 538.00 576.00 L 510.00 561.00 L 493.00 556.00 L 486.00 556.00 L 501.00 569.00 L 519.00 589.00 L 530.00 606.00 L 543.00 637.00 L 548.00 666.00 L 548.00 688.00 L 543.00 720.00 L 535.00 746.00 L 523.00 772.00 L 504.00 801.00 L 478.00 829.00 L 459.00 844.00 L 430.00 861.00 L 403.00 871.00 L 382.00 875.00 L 365.00 875.00 L 360.00 873.00 L 365.00 846.00 L 364.00 808.00 L 358.00 775.00 L 347.00 736.00 L 344.00 718.00 L 345.00 684.00 L 357.00 626.00 L 361.00 587.00 L 362.00 550.00 L 358.00 479.00 L 369.00 472.00 L 378.00 461.00 L 381.00 450.00 L 379.00 435.00 L 381.00 435.00 L 386.00 447.00 L 390.00 436.00 L 391.00 424.00 L 388.00 410.00 L 382.00 399.00 L 375.00 392.00 L 365.00 387.00 L 356.00 386.00 L 346.00 388.00 L 330.00 397.00 L 321.00 406.00 L 320.00 405.00 L 332.00 389.00 L 343.00 382.00 L 354.00 379.00 L 354.00 358.00 L 350.00 332.00 L 344.00 313.00 L 335.00 293.00 L 316.00 259.00 L 310.00 244.00 L 304.00 216.00 L 304.00 195.00 L 307.00 180.00 L 315.00 160.00 L 342.00 123.00 L 348.00 110.00 L 350.00 99.00 L 357.00 92.00 L 362.00 83.00 L 375.00 92.00 L 385.00 102.00 L 396.00 117.00 L 384.00 96.00 L 373.00 85.00 L 363.00 79.00 L 366.00 70.00 L 390.00 80.00 L 413.00 99.00 L 407.00 91.00 L 390.00 76.00 L 376.00 69.00 L 367.00 67.00 L 365.00 65.00 L 365.00 58.00 L 374.00 57.00 L 388.00 60.00 L 412.00 72.00 L 400.00 63.00 L 388.00 57.00 L 377.00 54.00 L 365.00 54.00 L 356.00 39.00 L 360.00 54.00 L 360.00 68.00 L 357.00 79.00 L 351.00 87.00 L 337.00 65.00 L 323.00 87.00 L 309.00 102.00 L 290.00 115.00 L 274.00 120.00 L 282.00 121.00 L 291.00 119.00 L 308.00 111.00 L 317.00 104.00 L 335.00 85.00 L 340.00 86.00 L 343.00 91.00 L 343.00 100.00 L 334.00 120.00 L 305.00 152.00 L 290.00 174.00 L 281.00 196.00 L 277.00 218.00 L 279.00 254.00 L 289.00 296.00 L 296.00 339.00 L 296.00 379.00 L 292.00 414.00 L 302.00 425.00 L 308.00 439.00 L 308.00 449.00 L 306.00 452.00 L 308.00 464.00 L 305.00 472.00 L 302.00 475.00 L 296.00 476.00 L 292.00 484.00 L 281.00 488.00 L 273.00 529.00 L 255.00 581.00 L 231.00 627.00 L 208.00 659.00 L 207.00 657.00 L 213.00 646.00 L 221.00 624.00 L 232.00 576.00 L 236.00 527.00 L 235.00 480.00 L 234.00 479.00 L 221.00 485.00 L 188.00 509.00 L 167.00 518.00 L 153.00 519.00 L 143.00 517.00 L 130.00 510.00 L 120.00 501.00 L 122.00 500.00 L 140.00 509.00 L 158.00 510.00 L 177.00 504.00 L 216.00 478.00 L 233.00 471.00 L 248.00 471.00 L 270.00 480.00 L 283.00 481.00 L 289.00 477.00 L 289.00 471.00 L 280.00 460.00 L 281.00 459.00 L 286.00 461.00 L 296.00 470.00 L 301.00 466.00 L 301.00 457.00 L 298.00 450.00 L 287.00 439.00 L 289.00 438.00 L 295.00 441.00 L 301.00 447.00 L 300.00 436.00 L 294.00 426.00 L 277.00 412.00 L 266.00 407.00 L 249.00 404.00 L 216.00 407.00 L 197.00 406.00 L 191.00 404.00 L 211.00 402.00 L 234.00 397.00 L 232.00 373.00 L 228.00 353.00 L 221.00 333.00 L 205.00 305.00 L 186.00 283.00 L 154.00 251.00 L 141.00 234.00 L 128.00 210.00 L 121.00 186.00 L 120.00 166.00 L 124.00 146.00 L 134.00 125.00 L 148.00 107.00 L 167.00 91.00 L 195.00 75.00 L 206.00 80.00 L 217.00 81.00 L 227.00 77.00 L 235.00 70.00 L 236.00 72.00 L 233.00 87.00 L 251.00 78.00 L 244.00 81.00 L 243.00 75.00 L 252.00 53.00 L 261.00 40.00 L 272.00 29.00 L 287.00 20.00 L 280.00 16.00 L 260.00 10.00 Z"/>
      <path d="M 295.00 28.00 L 294.00 37.00 L 301.00 45.00 L 309.00 48.00 L 318.00 47.00 L 318.00 42.00 L 320.00 41.00 L 326.00 49.00 L 336.00 51.00 L 341.00 47.00 L 347.00 37.00 L 349.00 24.00 L 346.00 17.00 L 341.00 13.00 L 335.00 11.00 L 324.00 11.00 L 305.00 18.00 Z"/>
      <path d="M 269.00 93.00 L 260.00 97.00 L 246.00 107.00 L 226.00 127.00 L 213.00 145.00 L 202.00 169.00 L 216.00 146.00 L 230.00 129.00 L 254.00 105.00 Z"/>
      <path d="M 264.00 83.00 L 246.00 90.00 L 219.00 108.00 L 196.00 132.00 L 184.00 151.00 L 200.00 131.00 L 216.00 116.00 L 238.00 99.00 Z"/>
      <path d="M 274.00 102.00 L 258.00 117.00 L 245.00 135.00 L 235.00 155.00 L 230.00 170.00 L 230.00 175.00 L 233.00 165.00 L 249.00 135.00 Z"/>
    </g>
    <g fill="#FFFFFF">
      <path d="M 233.00 54.00 L 230.00 49.00 L 222.00 42.00 L 216.00 40.00 L 203.00 41.00 L 195.00 45.00 L 186.00 54.00 L 180.00 63.00 L 176.00 73.00 L 184.00 69.00 L 200.00 52.00 L 206.00 49.00 L 219.00 48.00 Z"/>
      <path d="M 85.00 96.00 L 81.00 98.00 L 75.00 106.00 L 74.00 115.00 L 76.00 122.00 L 83.00 131.00 L 91.00 135.00 L 102.00 135.00 L 94.00 132.00 L 85.00 123.00 L 82.00 115.00 L 82.00 110.00 L 87.00 104.00 L 92.00 102.00 L 110.00 105.00 L 105.00 99.00 L 100.00 96.00 Z"/>
      <path d="M 218.00 55.00 L 214.00 55.00 L 211.00 58.00 L 211.00 61.00 L 214.00 64.00 L 220.00 61.00 L 220.00 57.00 Z"/>
    </g>
  </g>
</svg>