<svg width="45" height="39" viewBox="0 0 45 39" fill="none" xmlns="http://www.w3.org/2000/svg">
  <g transform="translate(8.5155 0.0000) scale(0.039117)">
    <g fill="#000000">
      <path d="M 444.00 6.00 L 435.00 6.00 L 428.00 9.00 L 412.00 26.00 L 407.00 36.00 L 401.00 56.00 L 398.00 96.00 L 396.00 98.00 L 390.00 98.00 L 375.00 103.00 L 366.00 92.00 L 372.00 104.00 L 376.00 120.00 L 373.00 138.00 L 370.00 140.00 L 354.00 120.00 L 348.00 134.00 L 333.00 156.00 L 313.00 175.00 L 293.00 186.00 L 301.00 186.00 L 310.00 183.00 L 322.00 176.00 L 339.00 160.00 L 354.00 142.00 L 359.00 141.00 L 364.00 145.00 L 365.00 159.00 L 356.00 181.00 L 316.00 232.00 L 299.00 269.00 L 290.00 311.00 L 286.00 352.00 L 284.00 402.00 L 275.00 461.00 L 264.00 496.00 L 243.00 541.00 L 217.00 577.00 L 191.00 601.00 L 197.00 617.00 L 199.00 628.00 L 197.00 639.00 L 198.00 654.00 L 195.00 663.00 L 188.00 668.00 L 180.00 663.00 L 173.00 669.00 L 166.00 669.00 L 154.00 663.00 L 136.00 647.00 L 126.00 643.00 L 116.00 645.00 L 90.00 657.00 L 75.00 660.00 L 79.00 697.00 L 89.00 746.00 L 99.00 778.00 L 114.00 811.00 L 113.00 813.00 L 101.00 794.00 L 84.00 756.00 L 80.00 768.00 L 76.00 794.00 L 78.00 824.00 L 84.00 845.00 L 92.00 862.00 L 102.00 877.00 L 116.00 893.00 L 92.00 900.00 L 76.00 912.00 L 68.00 927.00 L 68.00 939.00 L 72.00 945.00 L 74.00 945.00 L 86.00 932.00 L 90.00 930.00 L 91.00 931.00 L 85.00 940.00 L 85.00 947.00 L 89.00 951.00 L 117.00 953.00 L 142.00 950.00 L 186.00 938.00 L 226.00 917.00 L 243.00 912.00 L 261.00 910.00 L 245.00 888.00 L 234.00 863.00 L 228.00 834.00 L 229.00 803.00 L 238.00 766.00 L 253.00 734.00 L 276.00 702.00 L 291.00 687.00 L 292.00 689.00 L 270.00 722.00 L 254.00 758.00 L 246.00 789.00 L 243.00 819.00 L 246.00 852.00 L 254.00 877.00 L 265.00 897.00 L 283.00 918.00 L 252.00 921.00 L 237.00 925.00 L 222.00 932.00 L 215.00 937.00 L 203.00 951.00 L 199.00 961.00 L 198.00 971.00 L 199.00 976.00 L 204.00 983.00 L 211.00 974.00 L 223.00 964.00 L 224.00 965.00 L 221.00 968.00 L 217.00 978.00 L 218.00 985.00 L 225.00 989.00 L 241.00 990.00 L 273.00 986.00 L 294.00 981.00 L 320.00 972.00 L 335.00 964.00 L 355.00 947.00 L 385.00 903.00 L 407.00 883.00 L 429.00 871.00 L 478.00 856.00 L 519.00 838.00 L 556.00 814.00 L 594.00 777.00 L 618.00 742.00 L 630.00 717.00 L 640.00 688.00 L 648.00 642.00 L 648.00 607.00 L 645.00 589.00 L 646.00 584.00 L 651.00 600.00 L 656.00 631.00 L 656.00 666.00 L 653.00 688.00 L 647.00 712.00 L 635.00 744.00 L 620.00 771.00 L 605.00 792.00 L 573.00 825.00 L 532.00 854.00 L 492.00 873.00 L 431.00 892.00 L 409.00 904.00 L 392.00 919.00 L 369.00 950.00 L 357.00 962.00 L 378.00 965.00 L 421.00 965.00 L 454.00 961.00 L 507.00 947.00 L 555.00 925.00 L 598.00 895.00 L 635.00 859.00 L 663.00 821.00 L 675.00 800.00 L 689.00 769.00 L 703.00 721.00 L 708.00 678.00 L 707.00 647.00 L 704.00 626.00 L 698.00 600.00 L 691.00 580.00 L 678.00 553.00 L 664.00 531.00 L 637.00 501.00 L 604.00 478.00 L 582.00 469.00 L 567.00 466.00 L 564.00 468.00 L 575.00 476.00 L 598.00 499.00 L 607.00 511.00 L 622.00 537.00 L 631.00 560.00 L 636.00 583.00 L 637.00 613.00 L 632.00 646.00 L 621.00 679.00 L 607.00 706.00 L 589.00 731.00 L 569.00 752.00 L 539.00 775.00 L 513.00 789.00 L 472.00 802.00 L 458.00 804.00 L 429.00 804.00 L 424.00 802.00 L 423.00 776.00 L 416.00 741.00 L 401.00 701.00 L 379.00 655.00 L 366.00 612.00 L 359.00 565.00 L 358.00 520.00 L 363.00 484.00 L 370.00 462.00 L 386.00 431.00 L 415.00 389.00 L 440.00 345.00 L 457.00 302.00 L 465.00 269.00 L 469.00 236.00 L 469.00 196.00 L 461.00 114.00 L 465.00 84.00 L 469.00 72.00 L 476.00 62.00 L 476.00 58.00 L 473.00 53.00 L 468.00 50.00 L 463.00 50.00 L 456.00 56.00 L 455.00 55.00 L 460.00 43.00 L 468.00 35.00 L 468.00 30.00 L 462.00 24.00 L 456.00 23.00 L 448.00 26.00 L 441.00 32.00 L 436.00 40.00 L 434.00 40.00 L 438.00 26.00 L 448.00 11.00 Z"/>
      <path d="M 295.00 79.00 L 264.00 71.00 L 228.00 69.00 L 200.00 73.00 L 168.00 84.00 L 135.00 102.00 L 112.00 120.00 L 89.00 146.00 L 76.00 169.00 L 60.00 177.00 L 51.00 188.00 L 48.00 198.00 L 49.00 212.00 L 55.00 224.00 L 65.00 233.00 L 64.00 370.00 L 61.00 393.00 L 52.00 433.00 L 39.00 472.00 L 12.00 542.00 L 6.00 572.00 L 6.00 596.00 L 11.00 616.00 L 20.00 632.00 L 31.00 643.00 L 44.00 650.00 L 55.00 653.00 L 73.00 653.00 L 96.00 647.00 L 116.00 637.00 L 129.00 636.00 L 138.00 640.00 L 157.00 657.00 L 166.00 662.00 L 171.00 663.00 L 175.00 660.00 L 175.00 646.00 L 186.00 661.00 L 188.00 661.00 L 191.00 657.00 L 192.00 645.00 L 185.00 626.00 L 186.00 625.00 L 192.00 633.00 L 192.00 622.00 L 186.00 606.00 L 174.00 588.00 L 156.00 571.00 L 136.00 559.00 L 121.00 554.00 L 100.00 552.00 L 95.00 550.00 L 107.00 548.00 L 123.00 549.00 L 145.00 556.00 L 163.00 568.00 L 180.00 585.00 L 187.00 595.00 L 197.00 575.00 L 205.00 553.00 L 211.00 522.00 L 210.00 481.00 L 201.00 447.00 L 187.00 421.00 L 141.00 362.00 L 124.00 329.00 L 118.00 311.00 L 113.00 285.00 L 112.00 261.00 L 114.00 242.00 L 121.00 216.00 L 129.00 199.00 L 141.00 181.00 L 153.00 168.00 L 168.00 155.00 L 193.00 139.00 L 217.00 143.00 L 228.00 139.00 L 241.00 127.00 L 243.00 130.00 L 241.00 148.00 L 218.00 165.00 L 198.00 186.00 L 213.00 172.00 L 234.00 157.00 L 275.00 135.00 L 274.00 134.00 L 255.00 142.00 L 253.00 141.00 L 258.00 125.00 L 273.00 99.00 Z"/>
      <path d="M 360.00 77.00 L 358.00 73.00 L 349.00 66.00 L 341.00 65.00 L 330.00 67.00 L 312.00 76.00 L 305.00 83.00 L 302.00 89.00 L 302.00 94.00 L 308.00 101.00 L 316.00 104.00 L 331.00 103.00 L 333.00 95.00 L 341.00 103.00 L 350.00 105.00 L 356.00 101.00 L 361.00 88.00 Z"/>
      <path d="M 278.00 145.00 L 255.00 159.00 L 223.00 189.00 L 202.00 218.00 L 189.00 247.00 L 200.00 226.00 L 218.00 201.00 L 245.00 173.00 L 274.00 150.00 Z"/>
      <path d="M 284.00 155.00 L 256.00 182.00 L 238.00 207.00 L 225.00 234.00 L 217.00 261.00 L 224.00 243.00 L 242.00 209.00 L 256.00 189.00 L 284.00 157.00 Z"/>
      <path d="M 291.00 167.00 L 277.00 183.00 L 264.00 207.00 L 255.00 233.00 L 251.00 255.00 L 252.00 257.00 L 256.00 239.00 L 266.00 212.00 Z"/>
    </g>
    <g fill="#FFFFFF">
      <path d="M 381.00 136.00 L 379.00 144.00 L 373.00 152.00 L 373.00 161.00 L 371.00 169.00 L 362.00 189.00 L 341.00 217.00 L 329.00 237.00 L 323.00 252.00 L 320.00 265.00 L 320.00 289.00 L 333.00 280.00 L 350.00 263.00 L 361.00 248.00 L 373.00 226.00 L 388.00 181.00 L 394.00 140.00 Z"/>
      <path d="M 68.00 186.00 L 63.00 191.00 L 60.00 199.00 L 60.00 207.00 L 64.00 216.00 L 70.00 222.00 L 76.00 225.00 L 85.00 227.00 L 93.00 226.00 L 83.00 222.00 L 73.00 214.00 L 69.00 207.00 L 69.00 198.00 L 73.00 193.00 L 78.00 190.00 L 99.00 190.00 L 93.00 185.00 L 85.00 182.00 L 78.00 182.00 Z"/>
      <path d="M 237.00 111.00 L 226.00 100.00 L 220.00 98.00 L 205.00 99.00 L 194.00 105.00 L 188.00 111.00 L 182.00 120.00 L 175.00 137.00 L 184.00 132.00 L 193.00 119.00 L 207.00 107.00 L 218.00 105.00 Z"/>
      <path d="M 397.00 102.00 L 379.00 106.00 L 378.00 108.00 L 380.00 114.00 L 396.00 115.00 Z"/>
      <path d="M 382.00 121.00 L 382.00 130.00 L 395.00 134.00 L 396.00 121.00 Z"/>
      <path d="M 213.00 115.00 L 211.00 121.00 L 214.00 124.00 L 219.00 124.00 L 221.00 122.00 L 221.00 117.00 L 218.00 114.00 Z"/>
      <path d="M 398.00 117.00 L 398.00 119.00 L 410.00 121.00 L 426.00 126.00 L 441.00 135.00 L 423.00 123.00 L 404.00 117.00 Z"/>
      <path d="M 396.00 136.00 L 397.00 140.00 L 413.00 148.00 L 427.00 161.00 L 414.00 147.00 L 403.00 139.00 Z"/>
      <path d="M 398.00 98.00 L 398.00 100.00 L 417.00 99.00 L 433.00 103.00 L 418.00 98.00 Z"/>
    </g>
  </g>
</svg>