<svg width="45" height="39" viewBox="0 0 45 39" fill="none" xmlns="http://www.w3.org/2000/svg">
  <g transform="translate(8.5020 0.0000) scale(0.038883)">
    <g fill="#000000">
      <path d="M 323.00 22.00 L 286.00 21.00 L 272.00 23.00 L 247.00 30.00 L 223.00 41.00 L 188.00 66.00 L 168.00 87.00 L 154.00 109.00 L 136.00 117.00 L 126.00 131.00 L 124.00 138.00 L 125.00 153.00 L 129.00 162.00 L 136.00 170.00 L 132.00 191.00 L 129.00 224.00 L 130.00 317.00 L 126.00 361.00 L 121.00 387.00 L 112.00 419.00 L 64.00 557.00 L 55.00 591.00 L 46.00 637.00 L 43.00 669.00 L 43.00 698.00 L 46.00 727.00 L 56.00 766.00 L 66.00 790.00 L 82.00 818.00 L 81.00 819.00 L 60.00 793.00 L 50.00 775.00 L 41.00 753.00 L 36.00 763.00 L 30.00 786.00 L 30.00 828.00 L 36.00 849.00 L 43.00 864.00 L 55.00 882.00 L 67.00 894.00 L 63.00 896.00 L 46.00 898.00 L 32.00 903.00 L 22.00 909.00 L 10.00 922.00 L 6.00 933.00 L 6.00 941.00 L 8.00 945.00 L 13.00 950.00 L 16.00 950.00 L 19.00 944.00 L 31.00 934.00 L 32.00 935.00 L 27.00 943.00 L 27.00 951.00 L 33.00 956.00 L 75.00 957.00 L 121.00 950.00 L 143.00 943.00 L 176.00 925.00 L 196.00 919.00 L 215.00 916.00 L 190.00 888.00 L 173.00 856.00 L 165.00 827.00 L 164.00 787.00 L 169.00 762.00 L 184.00 727.00 L 199.00 705.00 L 217.00 687.00 L 218.00 688.00 L 202.00 713.00 L 192.00 734.00 L 186.00 752.00 L 180.00 780.00 L 180.00 818.00 L 187.00 848.00 L 201.00 878.00 L 218.00 901.00 L 245.00 925.00 L 213.00 927.00 L 189.00 932.00 L 169.00 941.00 L 154.00 954.00 L 146.00 970.00 L 146.00 981.00 L 148.00 986.00 L 155.00 991.00 L 162.00 980.00 L 172.00 972.00 L 173.00 973.00 L 168.00 981.00 L 167.00 988.00 L 171.00 994.00 L 178.00 996.00 L 211.00 996.00 L 240.00 992.00 L 271.00 984.00 L 289.00 977.00 L 310.00 964.00 L 325.00 949.00 L 355.00 909.00 L 369.00 896.00 L 385.00 885.00 L 416.00 872.00 L 470.00 860.00 L 496.00 851.00 L 528.00 835.00 L 557.00 815.00 L 586.00 787.00 L 605.00 763.00 L 621.00 737.00 L 632.00 714.00 L 645.00 677.00 L 652.00 646.00 L 655.00 621.00 L 656.00 587.00 L 658.00 592.00 L 660.00 635.00 L 656.00 674.00 L 650.00 700.00 L 639.00 732.00 L 626.00 759.00 L 613.00 780.00 L 594.00 804.00 L 558.00 837.00 L 515.00 863.00 L 479.00 877.00 L 408.00 895.00 L 382.00 908.00 L 355.00 933.00 L 325.00 968.00 L 355.00 971.00 L 390.00 971.00 L 434.00 966.00 L 489.00 952.00 L 515.00 942.00 L 551.00 924.00 L 583.00 903.00 L 613.00 878.00 L 635.00 855.00 L 656.00 828.00 L 679.00 790.00 L 694.00 756.00 L 704.00 725.00 L 711.00 690.00 L 713.00 672.00 L 713.00 627.00 L 711.00 609.00 L 704.00 575.00 L 687.00 531.00 L 669.00 502.00 L 643.00 474.00 L 621.00 458.00 L 606.00 451.00 L 593.00 448.00 L 592.00 449.00 L 612.00 473.00 L 627.00 499.00 L 639.00 532.00 L 645.00 567.00 L 645.00 601.00 L 641.00 627.00 L 630.00 664.00 L 615.00 697.00 L 600.00 721.00 L 585.00 740.00 L 560.00 764.00 L 530.00 784.00 L 501.00 797.00 L 467.00 806.00 L 432.00 810.00 L 398.00 808.00 L 396.00 806.00 L 398.00 796.00 L 398.00 759.00 L 391.00 720.00 L 379.00 686.00 L 350.00 628.00 L 344.00 607.00 L 341.00 585.00 L 342.00 549.00 L 350.00 510.00 L 362.00 478.00 L 377.00 449.00 L 348.00 462.00 L 272.00 490.00 L 245.00 503.00 L 227.00 515.00 L 225.00 514.00 L 237.00 503.00 L 257.00 490.00 L 286.00 476.00 L 366.00 445.00 L 400.00 428.00 L 437.00 405.00 L 472.00 377.00 L 509.00 341.00 L 539.00 320.00 L 564.00 295.00 L 575.00 289.00 L 586.00 290.00 L 590.00 286.00 L 592.00 279.00 L 591.00 274.00 L 587.00 269.00 L 582.00 267.00 L 568.00 268.00 L 568.00 266.00 L 583.00 261.00 L 596.00 263.00 L 598.00 260.00 L 598.00 253.00 L 596.00 249.00 L 589.00 244.00 L 565.00 244.00 L 576.00 239.00 L 588.00 238.00 L 584.00 232.00 L 575.00 228.00 L 563.00 228.00 L 550.00 232.00 L 537.00 239.00 L 505.00 263.00 L 477.00 281.00 L 441.00 298.00 L 395.00 312.00 L 345.00 320.00 L 299.00 323.00 L 276.00 322.00 L 245.00 315.00 L 232.00 309.00 L 216.00 298.00 L 197.00 277.00 L 187.00 258.00 L 182.00 243.00 L 179.00 223.00 L 179.00 206.00 L 181.00 190.00 L 187.00 169.00 L 197.00 148.00 L 210.00 130.00 L 229.00 112.00 L 251.00 97.00 L 266.00 90.00 L 279.00 95.00 L 292.00 95.00 L 300.00 91.00 L 308.00 83.00 L 312.00 84.00 L 310.00 103.00 L 289.00 118.00 L 273.00 134.00 L 297.00 115.00 L 343.00 90.00 L 342.00 89.00 L 325.00 96.00 L 321.00 96.00 L 326.00 78.00 L 334.00 62.00 L 343.00 49.00 L 361.00 33.00 L 342.00 26.00 Z"/>
      <path d="M 607.00 8.00 L 603.00 6.00 L 588.00 7.00 L 579.00 12.00 L 570.00 20.00 L 561.00 32.00 L 534.00 90.00 L 508.00 126.00 L 484.00 151.00 L 460.00 171.00 L 438.00 186.00 L 381.00 218.00 L 380.00 208.00 L 385.00 190.00 L 398.00 169.00 L 414.00 152.00 L 426.00 136.00 L 434.00 119.00 L 436.00 105.00 L 441.00 99.00 L 445.00 88.00 L 470.00 101.00 L 485.00 115.00 L 479.00 106.00 L 469.00 96.00 L 446.00 83.00 L 446.00 74.00 L 458.00 74.00 L 477.00 79.00 L 500.00 93.00 L 491.00 84.00 L 476.00 75.00 L 460.00 70.00 L 447.00 70.00 L 443.00 61.00 L 457.00 57.00 L 474.00 57.00 L 487.00 60.00 L 498.00 65.00 L 482.00 56.00 L 468.00 53.00 L 455.00 53.00 L 441.00 56.00 L 435.00 49.00 L 438.00 56.00 L 441.00 73.00 L 440.00 84.00 L 436.00 93.00 L 434.00 94.00 L 418.00 76.00 L 412.00 90.00 L 397.00 111.00 L 380.00 127.00 L 363.00 137.00 L 376.00 134.00 L 390.00 126.00 L 405.00 112.00 L 417.00 97.00 L 424.00 96.00 L 427.00 99.00 L 429.00 105.00 L 428.00 112.00 L 421.00 129.00 L 407.00 147.00 L 382.00 173.00 L 370.00 191.00 L 362.00 207.00 L 353.00 233.00 L 347.00 258.00 L 339.00 311.00 L 388.00 304.00 L 418.00 296.00 L 448.00 285.00 L 487.00 265.00 L 537.00 228.00 L 574.00 171.00 L 598.00 118.00 L 609.00 82.00 L 617.00 68.00 L 626.00 60.00 L 627.00 57.00 L 626.00 51.00 L 621.00 46.00 L 614.00 46.00 L 605.00 53.00 L 604.00 52.00 L 617.00 36.00 L 623.00 34.00 L 623.00 30.00 L 619.00 24.00 L 615.00 22.00 L 608.00 22.00 L 599.00 26.00 L 590.00 35.00 L 589.00 34.00 L 597.00 21.00 L 608.00 14.00 Z"/>
      <path d="M 425.00 22.00 L 414.00 16.00 L 402.00 17.00 L 390.00 22.00 L 380.00 29.00 L 371.00 41.00 L 372.00 51.00 L 376.00 55.00 L 383.00 58.00 L 396.00 58.00 L 398.00 56.00 L 398.00 50.00 L 400.00 49.00 L 404.00 55.00 L 410.00 59.00 L 419.00 58.00 L 428.00 39.00 L 428.00 28.00 Z"/>
      <path d="M 347.00 101.00 L 335.00 107.00 L 318.00 119.00 L 292.00 144.00 L 274.00 169.00 L 264.00 187.00 L 265.00 188.00 L 275.00 171.00 L 298.00 143.00 L 319.00 123.00 Z"/>
      <path d="M 352.00 111.00 L 325.00 136.00 L 315.00 149.00 L 300.00 175.00 L 291.00 199.00 L 304.00 173.00 L 321.00 147.00 Z"/>
      <path d="M 359.00 121.00 L 348.00 133.00 L 334.00 157.00 L 327.00 176.00 L 323.00 197.00 L 333.00 167.00 L 342.00 148.00 Z"/>
    </g>
    <g fill="#FFFFFF">
      <path d="M 148.00 124.00 L 144.00 126.00 L 137.00 135.00 L 136.00 149.00 L 140.00 157.00 L 148.00 164.00 L 157.00 167.00 L 165.00 167.00 L 154.00 161.00 L 149.00 156.00 L 145.00 149.00 L 144.00 141.00 L 147.00 135.00 L 154.00 131.00 L 160.00 130.00 L 172.00 133.00 L 174.00 132.00 L 169.00 127.00 L 161.00 123.00 Z"/>
      <path d="M 307.00 66.00 L 299.00 57.00 L 294.00 54.00 L 275.00 54.00 L 266.00 59.00 L 258.00 67.00 L 247.00 87.00 L 255.00 84.00 L 273.00 65.00 L 278.00 62.00 L 291.00 61.00 L 303.00 66.00 Z"/>
      <path d="M 284.00 70.00 L 283.00 75.00 L 285.00 78.00 L 290.00 78.00 L 293.00 75.00 L 292.00 70.00 Z"/>
    </g>
  </g>
</svg>