<svg width="45" height="39" viewBox="0 0 45 39" fill="none" xmlns="http://www.w3.org/2000/svg">
  <g transform="translate(7.0650 0.0000) scale(0.040248)">
    <g fill="#000000">
      <path d="M 288.00 6.00 L 267.00 6.00 L 233.00 12.00 L 211.00 20.00 L 190.00 31.00 L 171.00 44.00 L 150.00 63.00 L 134.00 82.00 L 121.00 102.00 L 109.00 104.00 L 101.00 109.00 L 91.00 123.00 L 89.00 140.00 L 97.00 161.00 L 92.00 177.00 L 86.00 215.00 L 84.00 322.00 L 77.00 373.00 L 59.00 426.00 L 34.00 479.00 L 22.00 509.00 L 12.00 544.00 L 7.00 574.00 L 6.00 611.00 L 9.00 640.00 L 17.00 677.00 L 27.00 707.00 L 41.00 738.00 L 61.00 771.00 L 81.00 797.00 L 107.00 826.00 L 106.00 828.00 L 85.00 829.00 L 66.00 833.00 L 54.00 837.00 L 35.00 848.00 L 25.00 860.00 L 22.00 868.00 L 22.00 878.00 L 25.00 884.00 L 30.00 888.00 L 32.00 888.00 L 37.00 879.00 L 47.00 870.00 L 49.00 872.00 L 44.00 881.00 L 44.00 886.00 L 47.00 891.00 L 58.00 895.00 L 75.00 897.00 L 126.00 895.00 L 161.00 889.00 L 200.00 879.00 L 221.00 878.00 L 222.00 877.00 L 203.00 851.00 L 193.00 826.00 L 189.00 803.00 L 189.00 787.00 L 192.00 767.00 L 203.00 736.00 L 223.00 702.00 L 236.00 686.00 L 264.00 659.00 L 265.00 660.00 L 238.00 696.00 L 222.00 725.00 L 212.00 751.00 L 206.00 780.00 L 206.00 806.00 L 213.00 837.00 L 227.00 864.00 L 249.00 888.00 L 219.00 890.00 L 199.00 894.00 L 175.00 905.00 L 162.00 917.00 L 157.00 926.00 L 155.00 935.00 L 157.00 946.00 L 163.00 952.00 L 171.00 940.00 L 184.00 930.00 L 185.00 931.00 L 179.00 938.00 L 176.00 945.00 L 176.00 952.00 L 183.00 960.00 L 191.00 960.00 L 199.00 954.00 L 201.00 955.00 L 199.00 958.00 L 200.00 960.00 L 205.00 962.00 L 232.00 962.00 L 276.00 955.00 L 319.00 941.00 L 341.00 930.00 L 361.00 916.00 L 375.00 903.00 L 395.00 878.00 L 413.00 860.00 L 431.00 848.00 L 460.00 836.00 L 517.00 823.00 L 539.00 816.00 L 576.00 799.00 L 598.00 785.00 L 615.00 771.00 L 644.00 740.00 L 665.00 709.00 L 679.00 681.00 L 690.00 651.00 L 699.00 614.00 L 703.00 576.00 L 703.00 557.00 L 706.00 579.00 L 706.00 614.00 L 703.00 641.00 L 698.00 663.00 L 687.00 696.00 L 677.00 718.00 L 666.00 737.00 L 647.00 763.00 L 614.00 795.00 L 591.00 811.00 L 565.00 825.00 L 525.00 840.00 L 468.00 853.00 L 435.00 866.00 L 412.00 883.00 L 375.00 926.00 L 421.00 931.00 L 454.00 931.00 L 486.00 928.00 L 514.00 923.00 L 544.00 915.00 L 571.00 905.00 L 602.00 890.00 L 631.00 872.00 L 663.00 846.00 L 687.00 821.00 L 710.00 790.00 L 724.00 766.00 L 742.00 726.00 L 752.00 692.00 L 758.00 655.00 L 760.00 614.00 L 757.00 580.00 L 750.00 548.00 L 744.00 530.00 L 730.00 500.00 L 712.00 474.00 L 690.00 452.00 L 664.00 435.00 L 639.00 427.00 L 634.00 427.00 L 632.00 429.00 L 652.00 448.00 L 668.00 470.00 L 680.00 494.00 L 687.00 518.00 L 691.00 554.00 L 689.00 582.00 L 683.00 612.00 L 676.00 634.00 L 661.00 667.00 L 646.00 691.00 L 628.00 713.00 L 610.00 730.00 L 594.00 742.00 L 564.00 758.00 L 544.00 765.00 L 501.00 773.00 L 462.00 772.00 L 447.00 769.00 L 439.00 765.00 L 434.00 732.00 L 426.00 709.00 L 417.00 691.00 L 393.00 654.00 L 351.00 599.00 L 340.00 577.00 L 335.00 561.00 L 333.00 549.00 L 333.00 521.00 L 336.00 504.00 L 347.00 475.00 L 365.00 445.00 L 299.00 479.00 L 251.00 509.00 L 223.00 531.00 L 189.00 567.00 L 188.00 566.00 L 201.00 544.00 L 215.00 526.00 L 228.00 513.00 L 251.00 495.00 L 295.00 470.00 L 417.00 408.00 L 444.00 392.00 L 495.00 356.00 L 534.00 322.00 L 561.00 294.00 L 586.00 278.00 L 602.00 262.00 L 611.00 250.00 L 619.00 245.00 L 626.00 245.00 L 630.00 247.00 L 634.00 243.00 L 636.00 233.00 L 631.00 225.00 L 624.00 222.00 L 609.00 225.00 L 608.00 224.00 L 610.00 222.00 L 624.00 217.00 L 638.00 219.00 L 640.00 216.00 L 639.00 207.00 L 633.00 201.00 L 627.00 199.00 L 612.00 199.00 L 618.00 196.00 L 628.00 194.00 L 624.00 188.00 L 617.00 185.00 L 602.00 185.00 L 578.00 195.00 L 530.00 230.00 L 494.00 253.00 L 468.00 266.00 L 427.00 282.00 L 373.00 296.00 L 281.00 309.00 L 221.00 325.00 L 204.00 325.00 L 187.00 319.00 L 167.00 301.00 L 159.00 289.00 L 151.00 272.00 L 144.00 245.00 L 144.00 204.00 L 150.00 182.00 L 161.00 158.00 L 180.00 133.00 L 200.00 115.00 L 216.00 104.00 L 244.00 89.00 L 249.00 88.00 L 264.00 94.00 L 275.00 95.00 L 287.00 91.00 L 297.00 83.00 L 302.00 85.00 L 296.00 107.00 L 273.00 118.00 L 248.00 136.00 L 285.00 115.00 L 335.00 98.00 L 326.00 98.00 L 315.00 101.00 L 311.00 100.00 L 316.00 89.00 L 327.00 73.00 L 345.00 55.00 L 358.00 46.00 L 373.00 40.00 L 359.00 29.00 L 338.00 18.00 L 310.00 9.00 Z"/>
      <path d="M 668.00 72.00 L 660.00 67.00 L 650.00 67.00 L 638.00 72.00 L 629.00 79.00 L 628.00 77.00 L 640.00 65.00 L 650.00 61.00 L 651.00 59.00 L 647.00 54.00 L 642.00 52.00 L 632.00 52.00 L 621.00 56.00 L 597.00 75.00 L 578.00 99.00 L 550.00 140.00 L 521.00 169.00 L 487.00 191.00 L 417.00 223.00 L 379.00 244.00 L 379.00 236.00 L 386.00 218.00 L 425.00 164.00 L 433.00 146.00 L 436.00 129.00 L 445.00 121.00 L 452.00 107.00 L 474.00 114.00 L 491.00 123.00 L 503.00 132.00 L 493.00 122.00 L 480.00 113.00 L 465.00 106.00 L 453.00 103.00 L 453.00 93.00 L 467.00 92.00 L 482.00 94.00 L 500.00 99.00 L 515.00 107.00 L 511.00 103.00 L 494.00 94.00 L 476.00 89.00 L 454.00 89.00 L 451.00 83.00 L 453.00 78.00 L 471.00 74.00 L 491.00 74.00 L 508.00 79.00 L 494.00 73.00 L 483.00 71.00 L 468.00 71.00 L 449.00 75.00 L 444.00 70.00 L 447.00 81.00 L 447.00 97.00 L 445.00 105.00 L 438.00 116.00 L 434.00 116.00 L 426.00 102.00 L 420.00 96.00 L 410.00 111.00 L 390.00 132.00 L 368.00 147.00 L 345.00 156.00 L 364.00 154.00 L 387.00 144.00 L 416.00 119.00 L 423.00 119.00 L 427.00 124.00 L 426.00 136.00 L 422.00 148.00 L 411.00 167.00 L 363.00 216.00 L 343.00 243.00 L 330.00 268.00 L 324.00 285.00 L 323.00 294.00 L 387.00 284.00 L 420.00 275.00 L 451.00 264.00 L 505.00 237.00 L 579.00 186.00 L 599.00 178.00 L 613.00 177.00 L 617.00 169.00 L 637.00 147.00 L 652.00 119.00 L 663.00 109.00 L 672.00 107.00 L 672.00 97.00 L 665.00 91.00 L 655.00 91.00 L 645.00 97.00 L 643.00 96.00 L 659.00 83.00 L 669.00 81.00 L 670.00 76.00 Z"/>
      <path d="M 436.00 47.00 L 430.00 40.00 L 424.00 37.00 L 410.00 36.00 L 400.00 38.00 L 382.00 47.00 L 375.00 54.00 L 372.00 60.00 L 372.00 66.00 L 378.00 74.00 L 387.00 78.00 L 400.00 77.00 L 402.00 69.00 L 410.00 79.00 L 414.00 81.00 L 421.00 81.00 L 428.00 76.00 L 435.00 64.00 L 437.00 57.00 Z"/>
      <path d="M 340.00 122.00 L 313.00 138.00 L 286.00 162.00 L 264.00 190.00 L 249.00 220.00 L 261.00 200.00 L 286.00 169.00 L 310.00 146.00 Z"/>
      <path d="M 335.00 110.00 L 300.00 125.00 L 275.00 142.00 L 250.00 165.00 L 226.00 197.00 L 242.00 178.00 L 276.00 147.00 L 297.00 132.00 Z"/>
      <path d="M 345.00 134.00 L 320.00 157.00 L 304.00 179.00 L 293.00 202.00 L 288.00 220.00 L 309.00 179.00 L 321.00 162.00 Z"/>
    </g>
    <g fill="#FFFFFF">
      <path d="M 297.00 64.00 L 294.00 59.00 L 284.00 50.00 L 271.00 47.00 L 263.00 48.00 L 247.00 56.00 L 238.00 65.00 L 226.00 84.00 L 239.00 78.00 L 253.00 64.00 L 266.00 57.00 L 280.00 57.00 Z"/>
      <path d="M 115.00 115.00 L 110.00 118.00 L 104.00 126.00 L 102.00 133.00 L 103.00 143.00 L 107.00 151.00 L 114.00 158.00 L 122.00 162.00 L 133.00 163.00 L 124.00 158.00 L 116.00 150.00 L 112.00 143.00 L 111.00 133.00 L 112.00 130.00 L 122.00 122.00 L 135.00 122.00 L 140.00 124.00 L 145.00 123.00 L 139.00 117.00 L 132.00 114.00 L 124.00 113.00 Z"/>
      <path d="M 274.00 64.00 L 271.00 66.00 L 270.00 72.00 L 272.00 75.00 L 278.00 75.00 L 281.00 69.00 L 278.00 65.00 Z"/>
    </g>
  </g>
</svg>