<svg width="45" height="39" viewBox="0 0 45 39" fill="none" xmlns="http://www.w3.org/2000/svg">
  <g transform="translate(5.8935 0.0000) scale(0.041935)">
    <g fill="#000000">
      <path d="M 358.00 9.00 L 338.00 6.00 L 304.00 7.00 L 270.00 16.00 L 245.00 28.00 L 222.00 43.00 L 190.00 73.00 L 177.00 91.00 L 170.00 91.00 L 160.00 95.00 L 152.00 102.00 L 148.00 109.00 L 145.00 119.00 L 145.00 127.00 L 151.00 143.00 L 156.00 148.00 L 156.00 152.00 L 151.00 169.00 L 146.00 199.00 L 139.00 282.00 L 134.00 312.00 L 119.00 361.00 L 77.00 464.00 L 60.00 513.00 L 48.00 559.00 L 41.00 600.00 L 39.00 621.00 L 39.00 658.00 L 42.00 682.00 L 52.00 720.00 L 69.00 757.00 L 68.00 758.00 L 47.00 725.00 L 38.00 701.00 L 34.00 680.00 L 27.00 698.00 L 22.00 722.00 L 22.00 751.00 L 29.00 781.00 L 46.00 812.00 L 62.00 830.00 L 33.00 838.00 L 23.00 844.00 L 13.00 854.00 L 6.00 869.00 L 7.00 880.00 L 13.00 886.00 L 26.00 872.00 L 32.00 868.00 L 34.00 869.00 L 29.00 874.00 L 26.00 885.00 L 30.00 890.00 L 34.00 891.00 L 72.00 891.00 L 108.00 886.00 L 158.00 873.00 L 193.00 857.00 L 216.00 849.00 L 238.00 844.00 L 259.00 842.00 L 244.00 826.00 L 229.00 798.00 L 222.00 767.00 L 223.00 740.00 L 232.00 706.00 L 245.00 681.00 L 259.00 662.00 L 286.00 637.00 L 288.00 638.00 L 268.00 663.00 L 253.00 691.00 L 244.00 716.00 L 239.00 743.00 L 239.00 770.00 L 247.00 801.00 L 262.00 827.00 L 286.00 851.00 L 262.00 852.00 L 236.00 856.00 L 217.00 862.00 L 203.00 870.00 L 191.00 882.00 L 185.00 896.00 L 186.00 909.00 L 192.00 916.00 L 194.00 916.00 L 198.00 909.00 L 213.00 896.00 L 215.00 897.00 L 210.00 903.00 L 207.00 911.00 L 208.00 917.00 L 213.00 921.00 L 231.00 923.00 L 284.00 918.00 L 311.00 912.00 L 339.00 903.00 L 361.00 893.00 L 376.00 883.00 L 425.00 829.00 L 439.00 818.00 L 456.00 808.00 L 487.00 796.00 L 536.00 785.00 L 581.00 771.00 L 630.00 747.00 L 661.00 724.00 L 681.00 704.00 L 707.00 667.00 L 716.00 648.00 L 724.00 625.00 L 729.00 603.00 L 732.00 571.00 L 734.00 585.00 L 733.00 620.00 L 723.00 659.00 L 712.00 683.00 L 697.00 707.00 L 670.00 737.00 L 635.00 764.00 L 591.00 787.00 L 547.00 802.00 L 488.00 816.00 L 455.00 829.00 L 432.00 845.00 L 406.00 873.00 L 385.00 892.00 L 424.00 896.00 L 463.00 896.00 L 504.00 892.00 L 537.00 886.00 L 571.00 877.00 L 620.00 858.00 L 653.00 840.00 L 697.00 807.00 L 719.00 785.00 L 739.00 760.00 L 754.00 736.00 L 765.00 714.00 L 780.00 668.00 L 785.00 629.00 L 783.00 595.00 L 776.00 564.00 L 762.00 531.00 L 738.00 497.00 L 717.00 478.00 L 708.00 472.00 L 689.00 464.00 L 688.00 465.00 L 700.00 481.00 L 708.00 497.00 L 715.00 516.00 L 720.00 539.00 L 720.00 578.00 L 712.00 610.00 L 700.00 635.00 L 691.00 649.00 L 667.00 676.00 L 650.00 690.00 L 630.00 703.00 L 591.00 720.00 L 555.00 729.00 L 519.00 733.00 L 482.00 732.00 L 467.00 730.00 L 465.00 728.00 L 462.00 698.00 L 452.00 668.00 L 439.00 644.00 L 410.00 604.00 L 401.00 581.00 L 401.00 548.00 L 406.00 530.00 L 415.00 510.00 L 405.00 508.00 L 395.00 514.00 L 386.00 513.00 L 375.00 508.00 L 356.00 494.00 L 345.00 491.00 L 333.00 521.00 L 311.00 551.00 L 292.00 569.00 L 275.00 582.00 L 239.00 603.00 L 237.00 602.00 L 253.00 582.00 L 269.00 557.00 L 282.00 531.00 L 292.00 502.00 L 262.00 507.00 L 234.00 507.00 L 205.00 500.00 L 186.00 489.00 L 177.00 481.00 L 164.00 464.00 L 158.00 453.00 L 159.00 450.00 L 166.00 461.00 L 180.00 475.00 L 190.00 482.00 L 209.00 491.00 L 231.00 496.00 L 269.00 496.00 L 294.00 492.00 L 333.00 482.00 L 349.00 482.00 L 360.00 487.00 L 380.00 502.00 L 395.00 506.00 L 401.00 502.00 L 401.00 496.00 L 398.00 489.00 L 399.00 487.00 L 411.00 502.00 L 418.00 501.00 L 420.00 497.00 L 420.00 484.00 L 416.00 474.00 L 411.00 468.00 L 412.00 467.00 L 421.00 475.00 L 424.00 481.00 L 426.00 478.00 L 426.00 467.00 L 418.00 449.00 L 409.00 437.00 L 392.00 423.00 L 374.00 414.00 L 359.00 409.00 L 335.00 404.00 L 301.00 400.00 L 276.00 390.00 L 279.00 389.00 L 292.00 393.00 L 311.00 394.00 L 309.00 379.00 L 302.00 357.00 L 295.00 343.00 L 282.00 325.00 L 225.00 266.00 L 209.00 238.00 L 204.00 223.00 L 201.00 206.00 L 201.00 188.00 L 205.00 166.00 L 213.00 146.00 L 228.00 124.00 L 250.00 103.00 L 289.00 78.00 L 303.00 81.00 L 314.00 81.00 L 324.00 77.00 L 333.00 68.00 L 338.00 68.00 L 337.00 85.00 L 311.00 104.00 L 296.00 120.00 L 308.00 109.00 L 330.00 94.00 L 362.00 77.00 L 369.00 75.00 L 370.00 73.00 L 351.00 79.00 L 349.00 78.00 L 354.00 63.00 L 361.00 50.00 L 373.00 34.00 L 391.00 19.00 Z"/>
      <path d="M 469.00 37.00 L 474.00 56.00 L 473.00 71.00 L 469.00 80.00 L 465.00 83.00 L 449.00 63.00 L 438.00 84.00 L 416.00 108.00 L 403.00 117.00 L 387.00 124.00 L 399.00 123.00 L 417.00 115.00 L 426.00 109.00 L 448.00 85.00 L 453.00 85.00 L 458.00 90.00 L 457.00 105.00 L 448.00 126.00 L 412.00 168.00 L 401.00 186.00 L 391.00 210.00 L 381.00 255.00 L 372.00 337.00 L 361.00 401.00 L 379.00 406.00 L 400.00 418.00 L 417.00 434.00 L 428.00 450.00 L 433.00 465.00 L 433.00 479.00 L 428.00 487.00 L 429.00 491.00 L 450.00 490.00 L 460.00 487.00 L 473.00 480.00 L 493.00 461.00 L 502.00 448.00 L 514.00 438.00 L 504.00 433.00 L 483.00 431.00 L 483.00 429.00 L 494.00 426.00 L 503.00 426.00 L 514.00 429.00 L 527.00 437.00 L 536.00 438.00 L 540.00 435.00 L 540.00 427.00 L 534.00 419.00 L 536.00 418.00 L 542.00 423.00 L 548.00 432.00 L 552.00 432.00 L 556.00 427.00 L 556.00 420.00 L 548.00 405.00 L 549.00 404.00 L 558.00 413.00 L 557.00 401.00 L 550.00 388.00 L 540.00 378.00 L 528.00 371.00 L 509.00 366.00 L 481.00 366.00 L 459.00 371.00 L 455.00 370.00 L 452.00 347.00 L 444.00 321.00 L 421.00 272.00 L 413.00 241.00 L 413.00 214.00 L 419.00 189.00 L 434.00 160.00 L 456.00 131.00 L 465.00 109.00 L 466.00 95.00 L 473.00 88.00 L 477.00 78.00 L 479.00 77.00 L 498.00 89.00 L 509.00 100.00 L 516.00 111.00 L 507.00 94.00 L 494.00 81.00 L 478.00 72.00 L 479.00 64.00 L 486.00 64.00 L 505.00 70.00 L 519.00 78.00 L 533.00 90.00 L 519.00 75.00 L 510.00 69.00 L 494.00 62.00 L 479.00 60.00 L 477.00 51.00 L 502.00 50.00 L 520.00 55.00 L 533.00 62.00 L 515.00 51.00 L 502.00 47.00 L 476.00 47.00 Z"/>
      <path d="M 458.00 13.00 L 453.00 9.00 L 444.00 6.00 L 430.00 7.00 L 421.00 10.00 L 405.00 21.00 L 400.00 31.00 L 401.00 38.00 L 406.00 43.00 L 417.00 47.00 L 426.00 47.00 L 428.00 45.00 L 429.00 38.00 L 437.00 47.00 L 449.00 49.00 L 456.00 41.00 L 460.00 32.00 L 461.00 20.00 Z"/>
      <path d="M 372.00 85.00 L 361.00 90.00 L 343.00 102.00 L 320.00 123.00 L 301.00 148.00 L 288.00 173.00 L 301.00 152.00 L 317.00 132.00 L 337.00 112.00 Z"/>
      <path d="M 378.00 95.00 L 357.00 111.00 L 337.00 134.00 L 322.00 160.00 L 312.00 187.00 L 313.00 188.00 L 321.00 168.00 L 335.00 144.00 L 350.00 124.00 Z"/>
      <path d="M 384.00 105.00 L 373.00 116.00 L 360.00 135.00 L 351.00 154.00 L 344.00 183.00 L 351.00 161.00 L 363.00 136.00 Z"/>
    </g>
    <g fill="#FFFFFF">
      <path d="M 172.00 102.00 L 166.00 105.00 L 161.00 110.00 L 157.00 122.00 L 158.00 129.00 L 161.00 136.00 L 168.00 143.00 L 176.00 147.00 L 186.00 148.00 L 177.00 143.00 L 169.00 134.00 L 166.00 127.00 L 166.00 119.00 L 171.00 112.00 L 178.00 109.00 L 185.00 109.00 L 199.00 113.00 L 192.00 105.00 L 181.00 101.00 Z"/>
      <path d="M 331.00 51.00 L 323.00 43.00 L 314.00 39.00 L 302.00 39.00 L 296.00 41.00 L 288.00 46.00 L 280.00 55.00 L 270.00 76.00 L 277.00 73.00 L 295.00 52.00 L 304.00 47.00 L 318.00 47.00 Z"/>
      <path d="M 310.00 54.00 L 307.00 58.00 L 308.00 62.00 L 315.00 63.00 L 317.00 60.00 L 316.00 55.00 Z"/>
    </g>
  </g>
</svg>